<svg xmlns="http://www.w3.org/2000/svg" xmlns:xlink="http://www.w3.org/1999/xlink" x="0" y="0" enable-background="new 0 0 100 100" version="1.1" viewBox="0 0 100 125" xml:space="preserve"><title>404</title><desc>Created with Sketch.</desc><g><path fill="none" d="M42,70.5h16c3.3,0,6-2.7,6-6v-17c0-3.3-2.7-6-6-6H42c-3.3,0-6,2.7-6,6v17C36,67.8,38.7,70.5,42,70.5z M56.5,64.5H43.2c-1.1,0-2-0.9-2-2s0.9-2,2-2h13.2c1.1,0,2,0.9,2,2S57.6,64.5,56.5,64.5z M51.2,51c-0.8-0.8-0.8-2-0.1-2.8 c0.8-0.8,2-0.8,2.8-0.1l1.4,1.3l1.4-1.3c0.8-0.8,2.1-0.7,2.8,0.1c0.8,0.8,0.7,2.1-0.1,2.8l-1.2,1.2l1.2,1.2c0.8,0.8,0.8,2,0.1,2.8 c-0.8,0.8-2,0.8-2.8,0.1L55.3,55L54,56.2c-0.8,0.8-2.1,0.7-2.8-0.1c-0.8-0.8-0.7-2.1,0.1-2.8l1.2-1.2L51.2,51z M40.2,51 c-0.8-0.8-0.8-2-0.1-2.8c0.8-0.8,2-0.8,2.8-0.1l1.4,1.3l1.4-1.3c0.8-0.8,2.1-0.7,2.8,0.1c0.8,0.8,0.7,2.1-0.1,2.8l-1.2,1.2l1.2,1.2 c0.8,0.8,0.8,2,0.1,2.8c-0.8,0.8-2,0.8-2.8,0.1L44.3,55L43,56.2c-0.8,0.8-2.1,0.7-2.8-0.1c-0.8-0.8-0.7-2.1,0.1-2.8l1.2-1.2 L40.2,51z"/><path fill="none" d="M9,81.5c0,1.1,0.9,2,2,2h78c1.1,0,2-0.9,2-2V28.6H9V81.5z M32,47.5c0-5.5,4.5-10,10-10h16c5.5,0,10,4.5,10,10 v17c0,5.5-4.5,10-10,10H42c-5.5,0-10-4.5-10-10V47.5z"/><path fill="#000" d="M42,74.5h16c5.5,0,10-4.5,10-10v-17c0-5.5-4.5-10-10-10H42c-5.5,0-10,4.5-10,10v17C32,70,36.5,74.5,42,74.5 z M36,47.5c0-3.3,2.7-6,6-6h16c3.3,0,6,2.7,6,6v17c0,3.3-2.7,6-6,6H42c-3.3,0-6-2.7-6-6V47.5z"/><path fill="#000" d="M51.1,56.2c0.8,0.8,2,0.8,2.8,0.1l1.4-1.3l1.4,1.3c0.8,0.8,2.1,0.7,2.8-0.1c0.8-0.8,0.7-2.1-0.1-2.8 l-1.2-1.2l1.2-1.2c0.8-0.8,0.8-2,0.1-2.8c-0.8-0.8-2-0.8-2.8-0.1l-1.4,1.3L54,48.1c-0.8-0.8-2.1-0.7-2.8,0.1 c-0.8,0.8-0.7,2.1,0.1,2.8l1.2,1.2l-1.2,1.2C50.4,54.1,50.4,55.4,51.1,56.2z"/><path fill="#000" d="M56.5,60.5H43.2c-1.1,0-2,0.9-2,2s0.9,2,2,2h13.2c1.1,0,2-0.9,2-2S57.6,60.5,56.5,60.5z"/><path fill="#000" d="M40.1,56.2c0.8,0.8,2,0.8,2.8,0.1l1.4-1.3l1.4,1.3c0.8,0.8,2.1,0.7,2.8-0.1c0.8-0.8,0.7-2.1-0.1-2.8 l-1.2-1.2l1.2-1.2c0.8-0.8,0.8-2,0.1-2.8c-0.8-0.8-2-0.8-2.8-0.1l-1.4,1.3L43,48.1c-0.8-0.8-2.1-0.7-2.8,0.1 c-0.8,0.8-0.7,2.1,0.1,2.8l1.2,1.2l-1.2,1.2C39.4,54.1,39.4,55.4,40.1,56.2z"/><path fill="#000" d="M89,12.5H11c-3.3,0-6,2.7-6,6v63c0,3.3,2.7,6,6,6h78c3.3,0,6-2.7,6-6v-63C95,15.2,92.3,12.5,89,12.5z M91,81.5c0,1.1-0.9,2-2,2H11c-1.1,0-2-0.9-2-2V28.6h82V81.5z M91,24.6H9v-6.1c0-1.1,0.9-2,2-2h78c1.1,0,2,0.9,2,2V24.6z"/><path fill="#000" d="M13.8,22.9c-1.2,0-2.1-0.9-2.1-2.1c0-1.2,0.9-2.1,2.1-2.1s2.1,0.9,2.1,2.1C15.9,22,15,22.9,13.8,22.9z M19.6,22.9c-1.2,0-2.1-0.9-2.1-2.1c0-1.2,0.9-2.1,2.1-2.1s2.1,0.9,2.1,2.1C21.7,22,20.7,22.9,19.6,22.9z M25.4,22.9 c-1.2,0-2.1-0.9-2.1-2.1c0-1.2,0.9-2.1,2.1-2.1s2.1,0.9,2.1,2.1C27.5,22,26.5,22.9,25.4,22.9z"/><ellipse cx="25.4" cy="20.8" fill="#000" rx="2.1" ry="2.1"/><ellipse cx="13.8" cy="20.8" fill="#000" rx="2.1" ry="2.1"/><ellipse cx="19.6" cy="20.8" fill="#000" rx="2.1" ry="2.1"/></g><text x="0" y="115" fill="#000" font-family="'Helvetica Neue', Helvetica, Arial-Unicode, Arial, Sans-serif" font-size="5" font-weight="bold">Created by Julynn B.</text><text x="0" y="120" fill="#000" font-family="'Helvetica Neue', Helvetica, Arial-Unicode, Arial, Sans-serif" font-size="5" font-weight="bold">from the Noun Project</text></svg>
